<mxfile host="app.diagrams.net" agent="Mozilla/5.0 (Windows NT 10.0; Win64; x64) AppleWebKit/537.36 (KHTML, like Gecko) Chrome/133.0.0.0 Safari/537.36" version="26.0.14">
  <diagram name="Página-1" id="dgHIPAIO7TdHuas4nAJ2">
    <mxGraphModel dx="1222" dy="628" grid="1" gridSize="10" guides="1" tooltips="1" connect="1" arrows="1" fold="1" page="1" pageScale="1" pageWidth="827" pageHeight="1169" math="0" shadow="0">
      <root>
        <mxCell id="0" />
        <mxCell id="1" parent="0" />
        <mxCell id="8NgZ1bUtuJQNJMLmi6EY-6" value="" style="edgeStyle=orthogonalEdgeStyle;rounded=0;orthogonalLoop=1;jettySize=auto;html=1;strokeWidth=4;" edge="1" parent="1" source="8NgZ1bUtuJQNJMLmi6EY-3" target="8NgZ1bUtuJQNJMLmi6EY-4">
          <mxGeometry relative="1" as="geometry" />
        </mxCell>
        <mxCell id="8NgZ1bUtuJQNJMLmi6EY-3" value="&lt;div&gt;Los resultados del análisis del PEP revelan diferencias significativas en la formación del licenciado en ciencias naturales en Colombia. Se observa un marcado énfasis en &lt;b&gt;el componente disciplinar, que constituye entre el 50% y el 60%&lt;/b&gt; del currículo. En contraste, l&lt;b&gt;a didáctica de las ciencias&amp;nbsp; representa únicamente entre el 4% y el 10%&lt;/b&gt;. Esta distribución limita la formación integral del profesorado en ciencias naturales y da lugar a importantes brechas en la preparación de estos profesionales.&lt;/div&gt;" style="shape=cube;whiteSpace=wrap;html=1;boundedLbl=1;backgroundOutline=1;darkOpacity=0.05;darkOpacity2=0.1;fontSize=14;align=left;fontFamily=Verdana;" vertex="1" parent="1">
          <mxGeometry x="50" y="110" width="710" height="130" as="geometry" />
        </mxCell>
        <mxCell id="8NgZ1bUtuJQNJMLmi6EY-4" value="&lt;p style=&quot;language:es-CO;line-height:normal;margin-top:0pt;margin-bottom:0pt;&lt;br/&gt;margin-left:0in&quot;&gt;&lt;font face=&quot;Verdana&quot;&gt;En cuanto a los microcurrículos analizados (N=58), se detecta un enfoque restringido en la enseñanza de la estructura atómica y sus aplicaciones prácticas, con una notable&amp;nbsp;&lt;span style=&quot;font-weight: bold;&quot;&gt;predominancia de los modelos clásicos y &lt;/span&gt;&lt;span style=&quot;font-weight: bold;&quot;&gt;precuánticos&lt;/span&gt;&lt;span style=&quot;font-weight: bold;&quot;&gt; y una omisión de las&lt;br&gt;contribuciones de la teoría cuántica&lt;/span&gt;.&amp;nbsp;&lt;/font&gt;&lt;/p&gt;" style="shape=cube;whiteSpace=wrap;html=1;boundedLbl=1;backgroundOutline=1;darkOpacity=0.05;darkOpacity2=0.1;fontSize=14;align=left;fontFamily=Verdana;fillColor=#f9f7ed;strokeColor=#36393d;" vertex="1" parent="1">
          <mxGeometry x="50" y="280" width="710" height="130" as="geometry" />
        </mxCell>
        <mxCell id="8NgZ1bUtuJQNJMLmi6EY-5" value="&lt;p style=&quot;language:es-CO;line-height:normal;margin-top:0pt;margin-bottom:0pt;&lt;br/&gt;margin-left:0in&quot;&gt;&lt;font face=&quot;Verdana&quot;&gt;Por otro lado, se ha identificado que los profesores responsables (N=32) de los contenidos sobre estructura atómica en los programas de licenciatura, a pesar de contar &lt;b&gt;con una formación disciplinar en física y química&lt;/b&gt;, presentan deficiencias &lt;b&gt;significativas en su didáctica especifica.&amp;nbsp;&lt;/b&gt;&lt;/font&gt;&lt;/p&gt;" style="shape=cube;whiteSpace=wrap;html=1;boundedLbl=1;backgroundOutline=1;darkOpacity=0.05;darkOpacity2=0.1;fontSize=14;align=left;fontFamily=Verdana;fillColor=#eeeeee;strokeColor=#36393d;" vertex="1" parent="1">
          <mxGeometry x="60" y="451" width="710" height="130" as="geometry" />
        </mxCell>
        <mxCell id="8NgZ1bUtuJQNJMLmi6EY-7" style="edgeStyle=orthogonalEdgeStyle;rounded=0;orthogonalLoop=1;jettySize=auto;html=1;entryX=0;entryY=0;entryDx=345;entryDy=0;entryPerimeter=0;strokeWidth=4;" edge="1" parent="1" source="8NgZ1bUtuJQNJMLmi6EY-4" target="8NgZ1bUtuJQNJMLmi6EY-5">
          <mxGeometry relative="1" as="geometry" />
        </mxCell>
      </root>
    </mxGraphModel>
  </diagram>
</mxfile>
